HIERARCHY
ROOT Pelvis
{
	OFFSET 0.000000 0.000000 0.000000
	CHANNELS 6 Xposition Yposition Zposition Zrotation Yrotation Xrotation 
	JOINT Left_hip
	{
		OFFSET 0.070241 -0.085575 -0.010474
		CHANNELS 3 Zrotation Yrotation Xrotation
		JOINT Left_knee
		{
			OFFSET 0.032125 -0.356873 -0.000555
			CHANNELS 3 Zrotation Yrotation Xrotation
			JOINT Left_ankle
			{
				OFFSET -0.010961 -0.370212 -0.042278
				CHANNELS 3 Zrotation Yrotation Xrotation
				JOINT Left_foot
				{
					OFFSET 0.023322 -0.052281 0.110104
					CHANNELS 3 Zrotation Yrotation Xrotation
					End Site
					{
						OFFSET 0.000000 0.000000 0.000000
					}
				}
			}
		}
	}
	JOINT Right_hip
	{
		OFFSET -0.068518 -0.084320 -0.007402
		CHANNELS 3 Zrotation Yrotation Xrotation
		JOINT Right_knee
		{
			OFFSET -0.037345 -0.364815 -0.003619
			CHANNELS 3 Zrotation Yrotation Xrotation
			JOINT Right_ankle
			{
				OFFSET 0.013394 -0.370006 -0.039954
				CHANNELS 3 Zrotation Yrotation Xrotation
				JOINT Right_foot
				{
					OFFSET -0.019600 -0.045455 0.113223
					CHANNELS 3 Zrotation Yrotation Xrotation
					End Site
					{
						OFFSET 0.000000 0.000000 0.000000
					}
				}
			}
		}
	}
	JOINT Spine1
	{
		OFFSET -0.002404 0.098129 -0.018169
		CHANNELS 3 Zrotation Yrotation Xrotation
		JOINT Spine2
		{
			OFFSET 0.003989 0.127209 -0.001742
			CHANNELS 3 Zrotation Yrotation Xrotation
			JOINT Spine3
			{
				OFFSET 0.001758 0.046641 0.023475
				CHANNELS 3 Zrotation Yrotation Xrotation
				JOINT Neck
				{
					OFFSET -0.003759 0.194901 -0.039982
					CHANNELS 3 Zrotation Yrotation Xrotation
					JOINT Head
					{
						OFFSET 0.003999 0.063756 0.047665
						CHANNELS 3 Zrotation Yrotation Xrotation
						End Site
						{
							OFFSET 0.000000 0.000000 0.000000
						}
					}
				}
				JOINT Left_collar
				{
					OFFSET 0.071816 0.109048 -0.028973
					CHANNELS 3 Zrotation Yrotation Xrotation
					JOINT Left_shoulder
					{
						OFFSET 0.084027 0.032269 -0.006525
						CHANNELS 3 Zrotation Yrotation Xrotation
						JOINT Left_elbow
						{
							OFFSET 0.243854 -0.013992 -0.025905
							CHANNELS 3 Zrotation Yrotation Xrotation
							JOINT Left_wrist
							{
								OFFSET 0.232156 0.008196 -0.000339
								CHANNELS 3 Zrotation Yrotation Xrotation
								JOINT Left_palm
								{
									OFFSET 0.075377 -0.009461 -0.012494
									CHANNELS 3 Zrotation Yrotation Xrotation
									End Site
									{
										OFFSET 0.000000 0.000000 0.000000
									}
								}
							}
						}
					}
				}
				JOINT Right_collar
				{
					OFFSET -0.073768 0.107001 -0.033755
					CHANNELS 3 Zrotation Yrotation Xrotation
					JOINT Right_shoulder
					{
						OFFSET -0.086837 0.032868 -0.009431
						CHANNELS 3 Zrotation Yrotation Xrotation
						JOINT Right_elbow
						{
							OFFSET -0.236446 -0.012544 -0.018747
							CHANNELS 3 Zrotation Yrotation Xrotation
							JOINT Right_wrist
							{
								OFFSET -0.236110 0.006124 -0.004327
								CHANNELS 3 Zrotation Yrotation Xrotation
								JOINT Right_palm
								{
									OFFSET -0.074800 -0.006875 -0.009610
									CHANNELS 3 Zrotation Yrotation Xrotation
									End Site
									{
										OFFSET 0.000000 0.000000 0.000000
									}
								}
							}
						}
					}
				}
			}
		}
	}
}
MOTION
Frames: 14
Frame Time: 0.100000
0.000000 0.000000 0.000000 177.441748 21.086558 -8.631307 -0.626048 5.311869 -0.332225 0.552888 -5.672806 -3.774343 -2.856456 24.248304 -2.816331 8.456551 -4.395851 -0.216437 1.847999 -5.249126 -1.038169 -1.453983 5.246725 -2.344115 -1.608482 -22.610287 -1.876268 7.104744 6.537424 7.278399 -0.877826 1.795292 -1.611125 1.129770 -2.568867 -5.393542 -0.822058 1.863484 -0.889853 -1.208951 -1.873568 8.184514 2.704173 2.101342 10.441735 -5.190325 9.933016 -9.735513 2.165145 -15.744302 -12.754205 2.836034 10.682591 -4.773894 0.867170 -4.036414 32.001777 0.401859 -6.634925 -0.065198 8.939417 -5.484416 -7.293440 -3.519666 13.181450 -18.980761 -10.245676 -11.728846 -9.347727 -6.667039 3.044976 32.716425 6.431548 7.840075 -2.250987 
-0.000090 0.000018 -0.000535 177.474671 20.839172 -8.617542 -0.642085 5.339212 -0.333669 0.557662 -5.571303 -3.788857 -2.766037 24.332378 -2.776660 8.333736 -4.409965 -0.188307 1.840156 -5.241867 -1.084482 -1.453632 5.388324 -2.373152 -1.481352 -22.578527 -1.851575 6.958886 6.621590 7.293694 -0.878698 1.829289 -1.506217 1.106249 -2.525879 -5.455439 -0.841796 1.922106 -0.753216 -1.362335 -2.187888 8.344725 2.660907 1.793584 10.603241 -5.026142 10.035180 -9.753339 2.186804 -15.654020 -12.810054 2.887359 10.851863 -4.595734 1.017538 -3.946009 32.236388 0.567007 -6.608986 -0.044328 8.922314 -5.459335 -7.328140 -3.636829 13.212922 -19.169711 -10.236345 -11.808489 -9.362535 -6.739425 3.025263 32.962992 6.323044 7.771319 -2.313669 
-0.000203 0.000069 -0.000951 177.451601 20.902975 -8.602701 -0.653077 5.321616 -0.394526 0.554503 -5.599773 -3.791312 -2.756705 24.337191 -2.750239 8.289157 -4.444185 -0.183179 1.843882 -5.272737 -1.138152 -1.459268 5.399422 -2.375525 -1.499628 -22.663756 -1.829681 7.021105 6.733588 7.401302 -0.914653 1.843839 -1.488437 1.106199 -2.536766 -5.437678 -0.869857 1.917484 -0.683749 -1.500446 -2.511744 8.646265 2.614924 1.546912 10.979207 -4.989517 10.070355 -9.721092 2.460063 -15.742157 -12.947022 2.864495 10.406123 -4.740308 1.257550 -3.995588 32.061558 0.498603 -6.631194 -0.013190 8.970643 -5.507737 -7.330143 -3.709950 13.124720 -19.140412 -10.193667 -11.746601 -9.288439 -6.959292 3.014981 32.987599 6.341265 7.817211 -2.319002 
-0.000478 0.000167 -0.001127 177.433853 20.972831 -8.645562 -0.656856 5.306843 -0.351656 0.545478 -5.620382 -3.823127 -2.809585 24.314047 -2.781673 8.401916 -4.456813 -0.174529 1.822095 -5.277276 -1.089897 -1.458676 5.345375 -2.399698 -1.547838 -22.673763 -1.817860 7.097836 6.799113 7.525532 -0.960926 1.871792 -1.532782 1.137457 -2.543422 -5.233580 -0.914004 1.912219 -0.683807 -1.645064 -2.756273 9.136089 2.521540 1.377004 11.352547 -5.176974 10.198372 -9.696082 2.549235 -15.980211 -12.918646 2.980534 9.531136 -4.884305 1.479289 -4.157136 31.728497 0.256420 -6.665775 -0.058095 9.237286 -5.588040 -7.386523 -3.646440 13.200807 -19.018734 -10.247076 -11.545955 -9.566664 -7.071433 3.065220 32.667872 6.460331 7.869393 -2.266084 
-0.000579 0.000534 -0.001450 177.454443 20.917236 -8.805156 -0.644755 5.312805 -0.223642 0.508997 -5.483938 -3.749195 -2.789224 24.178525 -2.822885 8.508159 -4.314251 -0.254033 1.788291 -5.226429 -0.967864 -1.466200 5.185955 -2.344259 -1.646164 -22.490049 -1.848759 7.216892 6.798836 7.722167 -0.972525 1.855521 -1.553982 1.193906 -2.560785 -4.803932 -1.007490 1.884319 -0.651060 -1.780009 -2.925482 9.608109 2.174705 1.376169 11.812905 -5.976036 10.486632 -9.549393 1.383944 -16.075030 -12.579603 4.155079 7.766463 -6.011361 2.849329 -4.336357 30.763585 -0.245490 -6.695596 0.076012 10.183784 -5.564093 -7.331943 -2.642549 13.904810 -18.569124 -11.013018 -10.834884 -9.894737 -8.169443 3.258339 32.566197 6.721166 7.916693 -2.059669 
0.000066 0.002034 -0.003515 177.569563 20.923853 -9.013308 -0.702088 5.056302 -0.319100 0.415079 -4.503122 -3.333183 -1.898951 22.947062 -2.485478 7.299544 -2.981025 -0.810973 1.661621 -4.786406 -1.142121 -1.478141 4.188906 -1.745597 -2.046093 -21.552313 -2.113328 8.021173 6.138636 8.360485 -1.095933 1.679281 -1.390714 1.349656 -2.347598 -3.785030 -1.427312 1.733817 -0.428664 -0.903066 -3.115388 9.008643 1.207548 1.032094 12.316336 -8.304143 12.043184 -8.662714 -7.541926 -16.033143 -6.651728 6.891100 -0.431118 -5.477567 11.197862 -6.749708 22.769189 -1.431185 -5.852966 1.270290 12.492207 -6.985170 -6.582800 6.215224 14.467778 -12.357048 -12.953599 -2.552802 -9.385438 -16.680241 5.996094 25.243941 7.972665 7.293724 -0.432097 
0.003547 0.006134 -0.009809 177.762653 21.411343 -8.494402 -0.981972 4.456174 -1.574716 0.431859 -2.573546 -2.878967 -0.713744 20.109693 -1.869376 5.162418 -0.406557 -1.092095 1.293202 -4.099054 -3.022304 -1.177141 1.770777 0.213566 -2.512922 -19.661631 -3.125560 8.613578 4.937951 9.859459 -1.339320 1.643444 -1.334887 1.267757 -2.475669 -1.348122 -1.863282 1.268861 -1.878417 -0.371274 -4.017086 7.036667 0.771981 -0.869954 13.608373 -15.472513 9.355880 -6.496860 -20.928588 -13.276639 3.453242 6.209793 -5.992418 -4.766385 15.746631 -10.264587 13.451953 -4.058240 -5.489767 0.751319 18.807225 -5.118972 -4.504348 20.488872 10.085868 -2.481627 -13.709692 10.141642 -11.251364 -23.050658 9.752131 13.292676 10.612606 6.468392 0.717673 
0.009253 0.009481 -0.018425 177.689265 21.497333 -7.964039 -0.564660 3.914479 -2.405514 0.127032 -0.598359 -3.473166 0.095400 17.762202 -1.241214 4.134387 1.915644 -1.621454 1.554502 -3.264678 -5.220203 -1.226068 -0.012096 2.125286 -2.899675 -18.331796 -3.953909 7.324161 5.109407 11.596149 -1.671756 1.792920 -0.842730 0.812529 -3.048437 2.039614 -1.929643 1.231229 -4.582826 -0.759126 -7.367609 2.991125 1.281462 -2.666129 16.156128 -25.560869 1.393288 -2.343829 -37.435995 -11.093427 12.891217 4.360729 -6.671822 -3.153553 7.068503 -7.002421 14.493118 -8.549179 -8.157228 -3.011561 27.815260 2.611643 0.246533 33.798658 8.512091 5.372670 -10.327930 8.798462 -9.655350 -12.701637 6.089580 13.253763 13.606795 8.699650 -1.338101 
0.013120 0.010881 -0.028332 177.734467 20.398374 -8.402701 -0.181637 4.992303 -2.039866 -0.162042 1.187745 -3.910066 -0.465686 16.976168 -0.218727 4.819499 2.239855 -5.042424 1.809780 -2.874563 -6.645345 -1.403338 0.435178 4.346549 -0.766362 -17.969053 -4.492264 2.129188 8.293575 10.941654 -2.161723 2.470685 0.337694 0.402035 -3.265471 7.150245 -1.876458 2.477322 -7.512828 -1.911650 -11.274276 -2.467090 2.773567 -5.782990 16.424723 -30.876300 -8.688805 3.595982 -48.172406 -14.001764 21.997399 -0.450400 -20.338405 13.892044 3.796431 -6.345297 22.224629 -13.085752 -12.405240 -9.868570 34.116064 12.983340 7.079294 42.580896 13.903881 7.813117 -10.614500 -0.307817 -12.311634 -10.276861 3.408053 14.895005 16.565427 11.918432 -4.490894 
0.021887 0.010224 -0.041358 176.538320 15.842445 -8.702007 2.241083 8.289297 -2.064973 0.347699 1.980320 -4.664376 -0.528479 14.083988 2.002214 2.707771 3.867233 -11.701314 3.699299 -3.128220 -9.611326 -0.511336 3.907037 7.279138 4.616137 -14.677423 -2.984397 -5.530040 10.477924 7.731086 -2.440207 3.021806 3.848683 1.665216 -2.266431 7.874511 -1.075692 3.690692 -9.989420 -1.925561 -12.522984 -7.703860 2.440566 -9.376273 17.561637 -25.343847 -14.905694 2.151002 -53.851428 -16.535441 31.793951 -13.749030 -48.031504 37.125292 15.879230 -5.201062 17.058175 -18.806552 -17.735917 -15.667259 33.218862 19.091189 8.228180 46.300784 18.071840 13.976759 -11.333930 3.925640 -11.824394 -16.979442 0.736439 8.265917 21.109600 16.581381 -9.956635 
0.034213 0.009172 -0.044027 175.709343 12.065344 -8.347885 4.463813 9.506666 -2.493167 0.571488 4.088172 -4.539464 -0.287584 13.940734 2.925645 1.807938 4.369655 -14.694639 4.253997 -2.020695 -10.789944 0.798417 6.063253 10.158039 5.676149 -13.158001 -4.576726 -7.213717 11.798157 7.486385 -2.333818 2.766636 4.109174 2.458007 -2.191532 6.907938 -0.429551 4.006847 -9.683876 -1.726992 -11.798242 -8.448255 1.861876 -10.301341 18.352212 -20.630278 -16.370823 0.622955 -53.833701 -19.370536 31.856408 -27.543730 -63.753350 52.994360 18.276386 -4.710689 14.004301 -20.432697 -18.659038 -16.096956 30.886012 21.199650 7.663147 47.415251 22.191724 15.052969 -13.551133 6.421378 -11.765096 -20.181481 -0.269991 8.207657 21.729967 17.325806 -10.538389 
0.053399 0.011262 -0.038295 176.320598 10.606408 -8.283338 6.124770 10.266106 -2.248258 -0.040302 3.542918 -3.743583 0.218235 13.919233 2.592451 1.098209 4.806063 -14.729627 1.550635 -3.206895 -9.932290 0.960927 5.221374 15.198141 5.190992 -13.450066 -7.322708 -6.410114 10.850365 7.746139 -2.434210 2.612060 3.421897 2.360608 -2.165188 6.095310 -0.799138 3.900424 -9.398258 -0.903194 -11.922028 -7.403044 0.817240 -10.417665 20.161717 -20.172075 -15.223987 -0.173985 -52.051497 -19.279362 30.844690 -24.651719 -62.310779 47.911586 17.374021 -3.697486 12.583959 -20.610205 -18.651467 -15.938063 30.434087 20.435020 6.640940 45.861645 22.096760 14.499531 -14.240670 9.346426 -11.985939 -22.918877 -0.037687 10.958995 22.331495 17.283746 -11.012178 
0.082957 0.013288 -0.024821 177.475028 7.905655 -7.536585 7.985646 10.919265 -1.591229 -0.180444 3.517291 -3.808843 0.883220 14.717786 2.488685 0.329383 4.948289 -12.500253 -2.023061 -3.995001 -9.116686 0.997954 5.578768 16.619066 4.989412 -12.117293 -8.034816 -4.399789 8.574350 7.856398 -1.949519 2.635661 2.326155 1.576002 -1.419154 4.551629 -1.436026 3.987981 -8.972891 0.482798 -12.337136 -6.648344 -0.283259 -9.025676 20.892867 -22.306760 -12.663433 -0.340026 -52.046069 -14.108405 28.883259 -8.482648 -46.327152 27.032404 16.094145 -0.396293 11.574324 -19.230732 -18.215396 -15.775481 30.315912 19.009528 6.448065 43.147259 20.748439 14.037223 -11.534958 13.577717 -9.323096 -23.255956 -0.514043 11.657508 21.869383 16.237378 -11.826804 
0.129241 0.015539 -0.002733 178.886069 3.286906 -6.253270 10.356286 11.867085 -0.204683 0.882587 3.779666 -4.473028 0.333025 16.064260 3.087105 0.853517 5.590762 -8.266948 -3.622718 -5.982277 -8.684423 -0.635281 1.605087 13.798479 3.138841 -12.812269 -9.599957 -0.373097 3.966677 8.361143 -0.850383 2.523397 1.025600 0.357385 -0.375919 2.839465 -1.800086 3.866561 -8.537576 2.364931 -10.653097 -4.909558 -1.764161 -7.363489 17.003459 -24.801221 -8.956147 -1.379215 -53.198006 -6.874263 22.996485 4.704854 -18.278812 6.667749 14.134566 3.838032 13.238472 -16.625373 -16.601280 -14.768937 29.917610 19.021580 6.732536 41.589715 20.722341 14.428798 -6.798478 17.236299 -0.555103 -20.411688 0.110701 14.037888 19.483533 13.909355 -11.432688 
